<svg xmlns="http://www.w3.org/2000/svg" viewBox="0 0 1000 482" width="1000" height="482"><defs><linearGradient id="amgChrome" x1="0.02" y1="0" x2="0.16" y2="1">
        <stop offset="0%" stop-color="#c9ced5"></stop>
        <stop offset="8%" stop-color="#f2f5f8"></stop>
        <stop offset="24%" stop-color="#8d949d"></stop>
        <stop offset="38%" stop-color="#4e545c"></stop>
        <stop offset="50%" stop-color="#7d848d"></stop>
        <stop offset="58%" stop-color="#ffffff"></stop>
        <stop offset="66%" stop-color="#dfe4ea"></stop>
        <stop offset="80%" stop-color="#7f868f"></stop>
        <stop offset="92%" stop-color="#b9bfc7"></stop>
        <stop offset="100%" stop-color="#5f656d"></stop>
      </linearGradient></defs><path fill="#08090a" fill-rule="evenodd" d="M260.7 0.0L352.6 0.0L352.6 342.2L345.9 343.0L328.1 359.3L247.4 359.3L246.7 214.1L158.5 342.2L134.1 360.0L9.6 360.7L228.9 17.0ZM379.3 0.0L465.9 0.0L600.0 197.8L605.2 192.6L645.2 133.3L648.9 130.4L673.3 121.5L782.2 122.2L637.0 338.5L614.8 359.3L552.6 359.3L459.3 223.0L458.5 342.2L440.0 359.3L360.0 359.3L360.0 17.0ZM517.8 0.7L896.3 0.7L979.3 83.0L960.7 94.1L641.5 94.1L611.1 137.0L589.6 149.6L498.5 13.3L498.5 11.9ZM811.1 120.7L986.7 120.7L986.7 271.1L916.3 338.5L884.4 356.3L640.7 356.3L692.6 277.8L719.3 258.5L857.0 258.5L857.0 218.5L732.6 218.5L788.1 134.1Z"></path><path fill="url(#amgChrome)" fill-rule="evenodd" d="M265.2 0.0L352.6 0.0L352.6 342.2L346.7 343.0L347.4 341.5L351.9 341.5L351.9 0.7L264.4 1.5ZM517.8 0.7L896.3 0.7L911.9 17.0L896.3 1.5ZM266.7 2.2L350.4 2.2L350.4 340.0L274.1 340.0L273.3 171.9L156.3 341.5L49.6 341.5ZM381.5 2.2L464.4 2.2L610.4 216.3L674.8 123.7L778.5 123.7L632.6 340.0L572.6 340.0L457.8 171.9L457.0 339.3L381.5 340.0ZM521.5 3.0L895.6 3.0L974.8 80.7L648.9 80.7L612.6 131.9L608.9 134.8ZM362.2 14.8L360.7 17.0L360.7 358.5L440.0 359.3L360.0 359.3L360.0 17.0ZM818.5 123.0L985.2 123.0L984.4 270.4L915.6 336.3L677.0 336.3L726.7 260.7L891.1 260.7L891.1 198.5L768.9 198.5Z"></path><path fill="#E4121B" fill-rule="evenodd" d="M37.8 404.4L46.7 404.4L54.8 409.6L54.8 411.1L57.8 413.3L57.8 414.8L62.2 420.0L82.2 460.0L84.4 466.7L87.4 469.6L92.6 471.1L93.3 473.3L98.5 471.1L101.5 466.7L102.2 434.1L100.7 419.3L91.9 414.8L92.6 408.9L97.8 405.9L104.4 404.4L125.9 404.4L135.6 407.4L136.3 414.1L130.4 417.0L128.1 420.7L128.9 465.2L131.9 468.1L134.8 468.9L145.2 467.4L150.4 462.2L152.6 454.8L158.5 454.1L160.7 455.6L162.2 458.5L162.2 468.9L159.3 476.3L153.3 482.2L146.7 482.2L142.2 480.7L96.3 480.7L93.3 478.5L93.3 477.0L90.4 480.0L83.7 482.2L56.3 482.2L52.6 481.5L48.1 478.5L48.1 472.6L54.1 469.6L54.1 465.9L52.6 464.4L45.9 463.0L30.4 463.0L26.7 464.4L25.9 469.6L32.6 473.3L32.6 477.8L31.1 480.0L25.2 482.2L7.4 482.2L2.2 480.7L0.0 478.5L0.0 473.3L4.4 470.4L6.7 470.4L11.1 465.2L15.6 456.3L15.6 454.1L20.0 446.7L20.0 444.4L23.7 438.5L23.7 436.3L25.9 433.3L28.9 423.7L29.6 411.9L34.1 405.9ZM203.0 404.4L222.2 405.2L225.9 408.9L236.3 431.1L241.5 437.0L243.0 437.0L246.7 432.6L248.1 427.4L256.3 411.1L260.0 406.7L265.2 404.4L280.7 404.4L286.7 406.7L288.9 409.6L288.9 413.3L283.0 419.3L282.2 422.2L281.5 453.3L282.2 465.9L283.0 468.1L286.7 471.9L288.1 471.9L288.1 473.3L293.3 470.4L295.6 470.4L298.5 467.4L304.4 456.3L304.4 454.1L308.9 446.7L308.9 444.4L312.6 438.5L312.6 436.3L314.8 433.3L317.0 426.7L318.5 411.9L320.0 408.9L323.0 405.9L326.7 404.4L335.6 404.4L340.0 406.7L341.5 408.9L343.0 408.9L343.7 411.1L348.9 416.3L371.1 460.0L373.3 466.7L376.3 469.6L381.5 471.1L382.2 477.0L379.3 480.0L372.6 482.2L341.5 481.5L337.0 478.5L337.0 472.6L343.0 469.6L343.0 465.9L341.5 464.4L334.8 463.0L319.3 463.0L315.6 464.4L314.8 465.9L314.8 469.6L321.5 473.3L320.7 479.3L317.0 481.5L296.3 482.2L291.1 480.7L288.1 477.8L286.7 480.0L280.0 482.2L258.5 482.2L253.3 480.7L250.4 477.8L251.1 472.6L255.6 469.6L257.0 460.7L256.3 448.9L253.3 448.1L248.1 456.3L248.1 458.5L245.2 463.0L245.2 465.2L239.3 477.8L237.8 479.3L234.1 479.3L227.4 467.4L227.4 465.2L224.4 460.7L224.4 458.5L221.5 454.1L219.3 447.4L216.3 446.7L214.8 450.4L214.8 466.7L215.6 469.6L221.5 473.3L221.5 478.5L214.1 482.2L196.3 481.5L192.6 478.5L192.6 474.1L197.0 471.9L199.3 469.6L200.0 466.7L201.5 447.4L201.5 424.4L200.0 419.3L192.6 414.1L192.6 410.4L195.6 406.7ZM389.6 404.4L407.4 404.4L410.4 405.9L425.2 420.0L426.7 420.0L431.1 425.2L432.6 425.2L437.0 430.4L438.5 430.4L441.5 434.1L444.4 435.6L447.4 434.8L448.1 424.4L446.7 418.5L440.0 414.1L440.0 408.1L443.7 405.2L465.2 404.4L470.4 406.7L472.6 410.4L472.6 408.9L474.8 406.7L480.7 404.4L498.5 404.4L501.5 405.9L504.4 409.6L505.9 409.6L510.4 414.8L511.9 414.8L516.3 420.0L517.8 420.0L522.2 425.2L523.7 425.2L528.1 430.4L529.6 430.4L532.6 434.1L535.6 435.6L538.5 434.8L539.3 424.4L537.8 418.5L531.1 414.1L531.1 408.1L533.3 405.9L537.8 404.4L558.5 405.2L562.2 407.4L563.0 414.1L562.2 415.6L557.8 417.0L554.8 422.2L553.3 477.8L551.9 480.7L549.6 482.2L545.2 482.2L542.2 480.7L529.6 468.1L528.1 468.1L515.6 455.6L514.1 455.6L508.1 448.9L506.7 448.9L503.7 445.9L501.5 445.9L499.3 448.9L498.5 454.1L499.3 464.4L500.7 468.1L506.7 471.9L505.9 478.5L501.5 481.5L497.8 482.2L483.0 482.2L477.0 480.0L474.8 477.8L474.8 471.9L481.5 466.7L482.2 463.7L483.0 435.6L480.7 420.7L477.8 417.0L473.3 415.6L471.9 412.6L471.1 415.6L466.7 417.0L463.7 422.2L463.0 474.1L460.0 481.5L454.1 482.2L451.1 480.7L445.9 474.8L444.4 474.8L438.5 468.1L437.0 468.1L431.9 462.2L430.4 462.2L424.4 455.6L423.0 455.6L417.0 448.9L415.6 448.9L412.6 445.9L410.4 445.9L408.9 447.4L407.4 456.3L408.1 464.4L409.6 468.1L415.6 471.9L414.8 478.5L410.4 481.5L406.7 482.2L388.9 481.5L383.7 477.8L383.7 471.9L390.4 466.7L391.1 463.7L391.1 426.7L388.9 419.3L386.7 417.0L381.5 414.8L380.7 410.4L383.7 406.7ZM600.0 404.4L608.9 404.4L613.3 406.7L614.8 408.9L616.3 408.9L617.0 411.1L620.0 413.3L620.0 414.8L624.4 420.0L644.4 460.0L646.7 466.7L649.6 469.6L654.8 471.1L655.6 474.1L662.2 468.1L663.7 458.5L663.0 423.0L662.2 420.7L654.8 414.8L655.6 408.9L660.7 405.9L668.9 404.4L688.9 404.4L697.0 407.4L698.5 409.6L698.5 414.1L691.9 418.5L690.4 423.0L689.6 452.6L691.1 466.7L698.5 471.9L698.5 477.0L693.3 480.7L685.9 482.2L665.2 482.2L657.0 479.3L656.3 476.3L652.6 480.0L645.9 482.2L618.5 482.2L614.8 481.5L610.4 478.5L610.4 472.6L616.3 469.6L616.3 465.9L614.8 464.4L608.1 463.0L592.6 463.0L588.9 464.4L588.1 469.6L594.8 473.3L594.8 477.8L593.3 480.0L587.4 482.2L569.6 482.2L564.4 480.7L562.2 478.5L562.2 473.3L566.7 470.4L568.9 470.4L573.3 465.2L577.8 456.3L577.8 454.1L582.2 446.7L582.2 444.4L585.9 438.5L585.9 436.3L588.1 433.3L591.1 423.7L591.9 411.9L596.3 405.9ZM766.7 404.4L781.5 404.4L790.4 407.4L800.7 405.9L805.9 410.4L808.9 417.0L808.9 426.7L807.4 429.6L803.7 432.6L797.0 432.6L794.1 431.1L785.2 420.7L777.8 417.8L770.4 418.5L763.0 424.4L760.0 433.3L760.7 445.9L764.4 456.3L771.1 463.7L775.6 465.9L780.7 466.7L783.0 465.9L785.9 462.2L785.2 456.3L777.8 455.6L774.8 452.6L774.8 447.4L780.7 443.0L787.4 441.5L806.7 441.5L812.6 443.0L817.8 446.7L817.8 453.3L814.8 455.6L810.4 456.3L808.9 462.2L805.9 468.1L803.7 469.6L803.7 471.1L797.8 476.3L785.9 481.5L767.4 482.2L751.9 477.0L740.7 468.1L733.3 454.8L731.9 438.5L733.3 431.1L734.8 429.6L736.3 424.4L737.8 423.7L739.3 420.0L748.9 411.1L757.8 406.7ZM827.4 404.4L852.6 404.4L860.7 406.7L863.0 409.6L863.0 411.9L860.0 415.6L860.0 419.3L865.2 425.9L868.1 425.9L873.3 420.0L873.3 416.3L870.4 413.3L870.4 408.9L874.8 405.2L897.8 404.4L902.2 405.9L903.7 408.9L905.2 408.9L906.7 406.7L914.1 404.4L931.1 404.4L937.0 408.9L947.4 431.1L952.6 437.0L954.1 437.0L957.8 432.6L959.3 427.4L967.4 411.1L971.1 406.7L976.3 404.4L994.8 405.2L999.3 408.1L1000.0 413.3L994.1 419.3L993.3 422.2L993.3 465.9L994.1 468.1L997.8 471.9L999.3 471.9L1000.0 477.8L997.8 480.0L991.1 482.2L969.6 482.2L964.4 480.7L961.5 477.8L961.5 474.1L963.7 471.1L966.7 469.6L968.1 460.7L967.4 448.9L964.4 448.1L959.3 456.3L959.3 458.5L956.3 463.0L956.3 465.2L950.4 477.8L948.9 479.3L945.2 479.3L938.5 467.4L938.5 465.2L935.6 460.7L935.6 458.5L932.6 454.1L930.4 447.4L927.4 446.7L925.9 450.4L925.9 466.7L926.7 469.6L932.6 473.3L932.6 478.5L925.2 482.2L910.4 482.2L905.9 480.7L903.7 478.5L903.7 474.1L908.1 471.9L910.4 469.6L911.1 466.7L912.6 447.4L912.6 424.4L911.1 419.3L906.7 417.0L904.4 414.1L903.0 414.1L901.5 415.6L892.6 417.8L888.1 422.2L888.1 423.7L880.7 430.4L880.7 431.9L876.3 435.6L874.1 440.0L872.6 448.1L873.3 464.4L876.3 468.9L879.3 469.6L881.5 471.9L881.5 477.0L876.3 480.7L870.4 482.2L848.1 482.2L840.7 480.7L835.6 477.0L835.6 471.9L837.8 469.6L841.5 468.9L844.4 463.7L844.4 441.5L843.0 438.5L840.7 437.0L840.7 435.6L837.0 432.6L837.0 431.1L828.1 422.2L827.4 420.0L816.3 414.1L816.3 408.9L818.5 406.7ZM39.3 434.8L37.0 436.3L35.6 439.3L32.6 448.9L47.4 449.6L48.1 446.7L43.7 437.8L42.2 437.0L42.2 435.6ZM328.1 434.8L325.9 436.3L324.4 439.3L321.5 448.9L336.3 449.6L337.0 446.7L332.6 437.8L331.1 437.0L331.1 435.6ZM601.5 434.8L599.3 436.3L597.8 439.3L594.8 448.9L609.6 449.6L610.4 446.7L605.9 437.8L604.4 437.0L604.4 435.6Z"></path></svg>